<svg width="25" height="25" viewBox="0 0 25 25" fill="none" xmlns="http://www.w3.org/2000/svg">
<g clip-path="url(#clip0_650_5807)">
<path d="M16.0126 0.144387C15.8986 0.0236512 15.7424 -0.0488281 15.5805 -0.0488281H5.88626C4.09742 -0.0488281 2.62085 1.4307 2.62085 3.2301V21.6721C2.62085 23.4717 4.09742 24.9512 5.88626 24.9512H19.0438C20.8327 24.9512 22.3092 23.4717 22.3092 21.6721V7.0284C22.3092 6.87143 22.2372 6.72055 22.1352 6.60573L16.0126 0.144387ZM16.1866 2.08283L20.2864 6.41252H17.6213C16.829 6.41252 16.1866 5.77241 16.1866 4.97533V2.08283ZM19.0438 23.7435H5.88626C4.76385 23.7435 3.82137 22.8075 3.82137 21.6721V3.2301C3.82137 2.10095 4.75778 1.15891 5.88626 1.15891H14.9861V4.97533C14.9861 6.44265 16.1627 7.62025 17.6213 7.62025H21.1087V21.6721C21.1087 22.8075 20.1723 23.7435 19.0438 23.7435Z" fill="#36B37E"/>
<path d="M17.405 19.5768H7.52482C7.19473 19.5768 6.92456 19.8485 6.92456 20.1807C6.92456 20.5128 7.19473 20.7846 7.52482 20.7846H17.4111C17.7412 20.7846 18.0114 20.5128 18.0114 20.1807C18.0114 19.8485 17.7412 19.5768 17.405 19.5768Z" fill="#36B37E"/>
<path d="M12.0268 17.409C12.1409 17.5297 12.297 17.6022 12.4649 17.6022C12.6331 17.6022 12.7891 17.5297 12.9031 17.409L16.4207 13.6107C16.6487 13.369 16.6307 12.9826 16.3907 12.7592C16.1505 12.5298 15.7664 12.5477 15.5443 12.7894L13.0652 15.4644V8.87035C13.0652 8.53809 12.795 8.26648 12.4649 8.26648C12.1348 8.26648 11.8647 8.53809 11.8647 8.87035V15.4644L9.39158 12.7894C9.1635 12.5479 8.78526 12.5298 8.54523 12.7592C8.3052 12.9887 8.28719 13.3692 8.51527 13.6107L12.0268 17.409Z" fill="#36B37E"/>
</g>
<defs>
<clipPath id="clip0_650_5807">
<rect width="24.8507" height="25" fill="white"/>
</clipPath>
</defs>
</svg>
